<svg xmlns="http://www.w3.org/2000/svg" width="38mm" height="31.5mm" viewBox="0 0 38 31.5" fill="#c6f6d5"><path d="M37.9186 2.1575l-.0279.0057-.3483.0413c-1.871.2241-3.3698 1.1364-4.827 2.9368-.3138.3875-.729 1.0169-.9225 1.3989-1.1845 2.3366-2.607 3.2624-4.779 3.1114-.4077-.0284-1.2755-.007-1.9286.0475-2.2808.1903-3.084.6205-3.881 2.0764-.5271.963-1.8083 2.8638-2.3796 3.5305-.8414.982-1.2908 1.1778-3.8866 1.6935-4.0908.8128-6.1931 1.3771-7.5168 2.018-.5792.2803-.8462.4825-1.3958 1.0541-1.1637 1.2106-1.6649 2.486-1.8547 4.7191-.2465 2.9016-.7319 4.6354-1.6459 5.8818-.1739.2372-.3625.5205-.4196.6295l-.1039.1979h6.9877c.4026-.0293 2.102-.455 2.899-3.0117.9573-3.0703.4511-4.7073 4.252-7.3939 2.9825-2.1081 3.7847-1.7096 5.0844-2.9672 1.2998-1.2577 2.868-4.4171 3.7032-4.9656 1.9999-1.3134 6.3746-.3109 8.0584-4.1936.6356-3.8278 4.3199-6.5653 4.9325-6.8104z"/><path d="M38 2.1422c-.1762-.1084-4.335 2.7366-5.0139 6.8256-1.6838 3.8827-6.0583 2.8801-8.0582 4.1935-.8352.5485-2.4034 3.708-3.7032 4.9656-1.2998 1.2577-2.1022.8594-5.0848 2.9675-3.8008 2.6866-3.2945 4.3237-4.2518 7.394-.7986 2.5616-2.5039 2.9841-2.9023 3.012L38 31.5z" fill="#9ae6b4"/></svg>