<svg fill="#48bb78" xmlns="http://www.w3.org/2000/svg" width="36mm" height="31.5mm" viewBox="0 0 36 31.5"><path d="M36 2.1422l-.1091.0212-.3486.0413c-1.871.2241-3.3699 1.1362-4.8272 2.9366-.3137.3875-.7286 1.017-.9222 1.399-1.1845 2.3366-2.6068 3.2624-4.7788 3.1114-.4077-.0284-1.2755-.007-1.9286.0476-2.2808.1903-3.084.6202-3.881 2.0761-.5272.963-1.8086 2.864-2.3799 3.5307-.8414.982-1.2906 1.1778-3.8864 1.6935-4.0908.8128-6.193 1.377-7.5167 2.0178-.5792.2804-.8464.4824-1.396 1.054-1.1637 1.2106-1.6647 2.486-1.8545 4.7192-.2465 2.9016-.732 4.6353-1.646 5.8817-.1739.2372-.3627.5205-.4198.6295L.0014 31.5H35.9999V16.8714v-.0435-.0086-.002V2.1501z"/></svg>