<svg xmlns="http://www.w3.org/2000/svg" version="1.1" id="svelte" x="0" y="0" xml:space="preserve" width="112" height="112"><style id="style2"/><path id="back" d="M96.5756 14.85c-10.4-14.9-30.9-19.3-45.8-9.8l-26 16.6c-7.1 4.5-12 11.7-13.5 20-1.2 6.9-.2 14 3.1 20.2-2.2 3.4-3.8 7.2-4.5 11.2-1.5 8.4.5 17.1 5.5 24.1 10.4 14.9 30.9 19.3 45.8 9.8l26.1-16.6c7.1-4.5 12-11.7 13.5-20 1.2-6.9.1-14-3.1-20.2 2.2-3.4 3.8-7.2 4.5-11.2 1.4-8.4-.6-17-5.6-24.1" fill="#159497"/><path id="front" d="M48.3 98.6854c-8.4 2.2-17.3-1.1-22.2-8.2-3-4.2-4.2-9.4-3.3-14.5.1-.8.4-1.6.6-2.4l.5-1.5 1.3 1c3.1 2.2 6.5 4 10.2 5.1l1 .3-.1 1c-.1 1.4.3 2.7 1.1 3.8 1.5 2.1 4.2 3.1 6.7 2.5.6-.2 1.1-.4 1.6-.7l26-16.6c1.3-.8 2.2-2.1 2.4-3.6.3-1.5-.1-3.1-1-4.4-1.5-2.1-4.2-3.1-6.7-2.5-.6.2-1.1.4-1.6.7l-10 6.3c-1.6 1-3.4 1.8-5.3 2.3-8.4 2.2-17.3-1.1-22.2-8.2-3-4.2-4.2-9.4-3.2-14.5.9-5 3.8-9.4 8.1-12.1l26.2-16.7c1.6-1 3.4-1.8 5.3-2.3 8.4-2.2 17.3 1.1 22.2 8.2 3 4.2 4.2 9.4 3.3 14.5l-.6 2.4-.5 1.5-1.3-1c-3.1-2.3-6.5-4-10.2-5.1l-1-.3.1-1c.1-1.4-.3-2.8-1.1-3.9-1.5-2.1-4.2-3.1-6.7-2.4-.6.2-1.1.4-1.6.7l-26.1 16.7c-1.3.8-2.2 2.1-2.5 3.6-.3 1.5.1 3.1 1 4.4 1.5 2.1 4.1 3.1 6.7 2.5.6-.2 1.1-.4 1.6-.7l10-6.3c1.6-1 3.4-1.8 5.3-2.3 8.4-2.2 17.3 1.1 22.2 8.2 3 4.2 4.2 9.4 3.3 14.5-.9 5-3.8 9.4-8.1 12.1l-26.1 16.6c-1.6 1-3.4 1.8-5.3 2.3" fill="#fff"/></svg>
