<svg xmlns="http://www.w3.org/2000/svg" class="h-12 w-auto hidden md:block" width="54" height="54" fill="none"><path d="M27 10.8c-7.2 0-11.7 3.6-13.5 10.8 2.7-3.6 5.85-4.95 9.45-4.05 2.054.5135 3.5221 2.0036 5.1471 3.6531C30.7443 23.8901 33.8081 27 40.5 27c7.2 0 11.7-3.6 13.5-10.8-2.7 3.6-5.85 4.95-9.45 4.05-2.054-.5135-3.5221-2.0036-5.1471-3.6531C36.7557 13.9099 33.6919 10.8 27 10.8zM13.5 27C6.3 27 1.8 30.6 0 37.8c2.7-3.6 5.85-4.95 9.45-4.05 2.054.5135 3.5221 2.0036 5.1471 3.6531C17.2443 40.0901 20.3081 43.2 27 43.2c7.2 0 11.7-3.6 13.5-10.8-2.7 3.6-5.85 4.95-9.45 4.05-2.054-.5135-3.5221-2.0036-5.1471-3.6531C23.2557 30.1099 20.1919 27 13.5 27z" clip-rule="evenodd" fill="url(#paint0_linear)" fill-rule="evenodd"/><defs id="defs11"><linearGradient id="paint0_linear" x1="3.5" y1="16" x2="59" y2="48" gradientUnits="userSpaceOnUse" gradientTransform="translate(-5 -5.2)"><stop stop-color="#2298BD" id="stop6"/><stop offset="1" stop-color="#0ED7B5" id="stop8"/></linearGradient></defs></svg>
