<svg width="256" height="256" fill="none" xmlns="http://www.w3.org/2000/svg"><mask id="a" maskUnits="userSpaceOnUse" x="0" y="0" width="256" height="256"><path fill-rule="evenodd" clip-rule="evenodd" d="M181.534 254.252c4.032 1.571 8.63 1.47 12.7-.488l52.706-25.361c5.538-2.665 9.06-8.271 9.06-14.42V42.0181c0-6.1492-3.522-11.7543-9.06-14.4193l-52.706-25.362c-5.341-2.57-11.592-1.9405-16.279 1.4674a15.8957 15.8957 0 00-1.906 1.6293l-100.9 92.0527-43.9498-33.3615c-4.0913-3.1056-9.8139-2.8512-13.6137.6053L3.4894 77.4525c-4.648 4.228-4.6533 11.5401-.0115 15.7749L41.5926 128 3.4779 162.773c-4.6418 4.235-4.6364 11.547.0115 15.775l14.0961 12.822c3.7998 3.457 9.5224 3.711 13.6137.606l43.9498-33.362 100.9 92.053c1.596 1.597 3.47 2.8 5.485 3.585zm10.505-184.3667L115.479 128l76.56 58.115V69.8853z" fill="#fff"/></mask><g mask="url(#a)"><path d="M246.94 27.6383l-52.747-25.397c-6.105-2.9396-13.402-1.6996-18.194 3.092L3.3237 162.773c-4.6445 4.235-4.6392 11.547.0115 15.775L17.44 191.37c3.8022 3.457 9.5283 3.711 13.622.606L239.003 34.2269c6.976-5.2922 16.996-.3166 16.996 8.4398v-.6124c0-6.1465-3.521-11.7496-9.059-14.416z" fill="#0065A9"/><g filter="url(#filter0_d)"><path d="M246.94 228.362l-52.747 25.397c-6.105 2.939-13.402 1.699-18.194-3.092L3.3237 93.2272c-4.6445-4.2347-4.6392-11.547.0115-15.7749L17.44 64.6298c3.8022-3.4565 9.5283-3.711 13.622-.6053L239.003 221.773c6.976 5.292 16.996.317 16.996-8.44v.613c0 6.146-3.521 11.749-9.059 14.416z" fill="#007ACC"/></g><g filter="url(#filter1_d)"><path d="M194.196 253.763c-6.107 2.937-13.404 1.696-18.196-3.096 5.904 5.904 16 1.722 16-6.628V11.9606c0-8.35-10.096-12.5318-16-6.6274 4.792-4.792 12.089-6.0338 18.196-3.0967l52.738 25.362c5.542 2.665 9.066 8.2701 9.066 14.4193V213.983c0 6.149-3.524 11.754-9.066 14.419l-52.738 25.361z" fill="#1F9CF0"/></g><path fill-rule="evenodd" clip-rule="evenodd" d="M181.378 254.252c4.032 1.57 8.63 1.47 12.699-.488l52.706-25.362c5.539-2.665 9.061-8.27 9.061-14.419V42.0179c0-6.1492-3.522-11.7543-9.06-14.4193l-52.707-25.362c-5.34-2.5699-11.591-1.9404-16.279 1.4674a16.053 16.053 0 00-1.906 1.6294L74.9927 97.386 31.0429 64.0245c-4.0912-3.1056-9.8139-2.8511-13.6137.6053L3.3332 77.4523c-4.648 4.228-4.6533 11.5402-.0116 15.775L41.4364 128 3.3216 162.773c-4.6417 4.235-4.6364 11.547.0115 15.775l14.0961 12.822c3.7998 3.457 9.5225 3.711 13.6137.606l43.9498-33.362 100.8993 92.053a15.919 15.919 0 005.486 3.585zm10.505-184.3669L115.323 128l76.56 58.115V69.8851z" fill="url(#paint0_linear)" opacity=".25"/></g><defs><filter id="filter0_d" x="-21.4896" y="40.5225" width="298.822" height="236.149" filterUnits="userSpaceOnUse" color-interpolation-filters="sRGB"><feFlood flood-opacity="0" result="BackgroundImageFix"/><feColorMatrix in="SourceAlpha" values="0 0 0 0 0 0 0 0 0 0 0 0 0 0 0 0 0 0 127 0"/><feOffset/><feGaussianBlur stdDeviation="10.6667"/><feColorMatrix values="0 0 0 0 0 0 0 0 0 0 0 0 0 0 0 0 0 0 0.25 0"/><feBlend mode="overlay" in2="BackgroundImageFix" result="effect1_dropShadow"/><feBlend in="SourceGraphic" in2="effect1_dropShadow" result="shape"/></filter><filter id="filter1_d" x="154.667" y="-20.6735" width="122.667" height="297.347" filterUnits="userSpaceOnUse" color-interpolation-filters="sRGB"><feFlood flood-opacity="0" result="BackgroundImageFix"/><feColorMatrix in="SourceAlpha" values="0 0 0 0 0 0 0 0 0 0 0 0 0 0 0 0 0 0 127 0"/><feOffset/><feGaussianBlur stdDeviation="10.6667"/><feColorMatrix values="0 0 0 0 0 0 0 0 0 0 0 0 0 0 0 0 0 0 0.25 0"/><feBlend mode="overlay" in2="BackgroundImageFix" result="effect1_dropShadow"/><feBlend in="SourceGraphic" in2="effect1_dropShadow" result="shape"/></filter><linearGradient id="paint0_linear" x1="127.844" y1=".66" x2="127.844" y2="255.34" gradientUnits="userSpaceOnUse"><stop stop-color="#fff"/><stop offset="1" stop-color="#fff" stop-opacity="0"/></linearGradient></defs></svg>